G04 EAGLE Gerber X2 export*
%TF.Part,Single*%
%TF.FileFunction,Copper,L2,Bot,Mixed*%
%TF.FilePolarity,Positive*%
%TF.GenerationSoftware,Autodesk,EAGLE,8.6.3*%
%TF.CreationDate,2019-03-08T18:13:08Z*%
G75*
%MOMM*%
%FSLAX34Y34*%
%LPD*%
%AMOC8*
5,1,8,0,0,1.08239X$1,22.5*%
G01*
%ADD10P,2.089446X8X22.500000*%
%ADD11P,1.814519X8X22.500000*%
%ADD12R,1.508000X1.508000*%
%ADD13C,1.508000*%
%ADD14P,1.429621X8X112.500000*%
%ADD15C,1.524000*%
%ADD16C,1.320800*%
%ADD17C,0.756400*%
%ADD18C,0.508000*%
%ADD19C,1.016000*%
%ADD20C,5.080000*%


D10*
X660400Y558800D03*
X609600Y558800D03*
X635000Y558800D03*
X685800Y558800D03*
D11*
X25400Y711200D03*
X50800Y711200D03*
X25400Y787400D03*
X50800Y787400D03*
X25400Y863600D03*
X50800Y863600D03*
D12*
X495300Y698500D03*
D13*
X520700Y698500D03*
X546100Y698500D03*
X571500Y698500D03*
X596900Y698500D03*
X622300Y698500D03*
X647700Y698500D03*
X673100Y698500D03*
X698500Y698500D03*
X723900Y698500D03*
X749300Y698500D03*
X774700Y698500D03*
X495300Y850900D03*
X520700Y850900D03*
X546100Y850900D03*
X571500Y850900D03*
X596900Y850900D03*
X622300Y850900D03*
X673100Y850900D03*
X698500Y850900D03*
X749300Y850900D03*
X774700Y850900D03*
X723900Y850900D03*
X647700Y850900D03*
X800100Y698500D03*
X825500Y698500D03*
X850900Y698500D03*
X800100Y850900D03*
X825500Y850900D03*
X850900Y850900D03*
D14*
X88900Y889000D03*
X88900Y965200D03*
X88900Y673100D03*
X88900Y749300D03*
X88900Y774700D03*
X88900Y850900D03*
D15*
X609600Y629920D02*
X609600Y614680D01*
X635000Y614680D02*
X635000Y629920D01*
X660400Y629920D02*
X660400Y614680D01*
X685800Y614680D02*
X685800Y629920D01*
X711200Y629920D02*
X711200Y614680D01*
D16*
X762000Y907796D02*
X762000Y921004D01*
X736600Y921004D02*
X736600Y907796D01*
X711200Y907796D02*
X711200Y921004D01*
X685800Y921004D02*
X685800Y907796D01*
X660400Y907796D02*
X660400Y921004D01*
X635000Y921004D02*
X635000Y907796D01*
X609600Y907796D02*
X609600Y921004D01*
X584200Y921004D02*
X584200Y907796D01*
X558800Y907796D02*
X558800Y921004D01*
X533400Y921004D02*
X533400Y907796D01*
D12*
X228600Y952500D03*
D13*
X254000Y952500D03*
X279400Y952500D03*
X304800Y952500D03*
D12*
X812800Y431800D03*
D13*
X787400Y431800D03*
X762000Y431800D03*
X736600Y431800D03*
X711200Y431800D03*
D17*
X520700Y876300D03*
X330200Y901700D03*
D18*
X685800Y558800D02*
X711200Y558800D01*
X812800Y457200D01*
X812800Y431800D01*
X685800Y558800D02*
X685800Y571500D01*
X673100Y584200D01*
X622300Y584200D01*
X609600Y596900D01*
X609600Y622300D01*
D19*
X342900Y889000D02*
X330200Y901700D01*
X342900Y889000D02*
X508000Y889000D01*
X520700Y876300D01*
D18*
X787400Y457200D02*
X787400Y431800D01*
X787400Y457200D02*
X774700Y457200D01*
X698500Y533400D01*
X647700Y533400D01*
X635000Y546100D01*
X635000Y558800D01*
X288389Y952500D02*
X279400Y952500D01*
X601472Y897128D02*
X647700Y850900D01*
X299993Y964104D02*
X288389Y952500D01*
X528981Y897128D02*
X601472Y897128D01*
X462005Y964104D02*
X299993Y964104D01*
X462005Y964104D02*
X528981Y897128D01*
D17*
X654852Y729448D03*
D18*
X477052Y729448D01*
X304800Y901700D01*
X304800Y952500D01*
X495300Y698500D02*
X538226Y655574D01*
X659144Y622300D02*
X660400Y622300D01*
X625870Y655574D02*
X538226Y655574D01*
X625870Y655574D02*
X659144Y622300D01*
D17*
X584200Y673100D03*
D18*
X595122Y662178D01*
X672084Y634760D02*
X672084Y609840D01*
X665240Y602996D01*
X655560Y602996D01*
X636256Y622300D02*
X635000Y622300D01*
X636256Y622300D02*
X655560Y602996D01*
X644666Y662178D02*
X595122Y662178D01*
X644666Y662178D02*
X672084Y634760D01*
X660400Y749300D02*
X660400Y914400D01*
X660400Y749300D02*
X647700Y736600D01*
X647006Y737294D01*
X601754Y737294D01*
D17*
X601754Y737294D03*
D18*
X647700Y698500D02*
X711200Y762000D01*
X711200Y914400D01*
X635000Y711200D02*
X622300Y698500D01*
X635000Y711200D02*
X647700Y711200D01*
X685800Y749300D01*
X685800Y914400D01*
D17*
X533400Y762000D03*
D18*
X508694Y737294D01*
X508000Y737294D01*
D17*
X508000Y737294D03*
X596900Y647700D03*
D18*
X622300Y647700D01*
D17*
X622300Y647700D03*
X736600Y571500D03*
D18*
X838200Y673100D01*
X838200Y838200D01*
X825500Y850900D01*
D20*
X952500Y38100D03*
X952500Y952500D03*
X38100Y952500D03*
X48260Y626110D03*
X537210Y626110D03*
X538480Y45720D03*
D18*
X617493Y686896D02*
X610696Y693693D01*
X686896Y703307D02*
X693693Y710104D01*
X765711Y698500D02*
X774700Y698500D01*
X765711Y698500D02*
X754107Y710104D01*
X252570Y687230D02*
X88900Y850900D01*
X252570Y687230D02*
X428995Y687230D01*
X461220Y719455D01*
X610696Y701115D02*
X610696Y693693D01*
X677907Y686896D02*
X686896Y695885D01*
X686896Y703307D01*
X677907Y686896D02*
X617493Y686896D01*
X693693Y710104D02*
X754107Y710104D01*
X592356Y719455D02*
X461220Y719455D01*
X592356Y719455D02*
X610696Y701115D01*
X749300Y647700D02*
X800100Y698500D01*
X824404Y422577D02*
X822023Y420196D01*
X782593Y420196D02*
X775796Y426993D01*
X775796Y436607D01*
X406400Y647700D02*
X397752Y647700D01*
X254000Y647700D01*
X710424Y647700D02*
X749300Y647700D01*
X710424Y647700D02*
X697484Y634760D01*
X685607Y526796D02*
X775796Y436607D01*
X697484Y581856D02*
X697484Y634760D01*
X697484Y581856D02*
X824404Y454936D01*
X824404Y422577D01*
X685607Y526796D02*
X527304Y526796D01*
X782593Y420196D02*
X822023Y420196D01*
D17*
X254000Y647700D03*
X241300Y762000D03*
D18*
X88900Y914400D01*
X88900Y965200D01*
X406400Y647700D02*
X527304Y526796D01*
M02*
