M48
;GenerationSoftware,Autodesk,EAGLE,8.6.3*%
;CreationDate,2019-03-08T18:13:08Z*%
FMAT,2
ICI,OFF
METRIC,TZ,000.000
T8C0.350
T7C0.813
T6C1.000
T5C1.016
T4C1.651
T3C2.000
T2C3.000
T1C4.064
%
G90
M71
T1
X3810Y95250
X95250Y3810
X95250Y95250
X4826Y62611
X53721Y62611
X53848Y4572
T2
X66040Y40005
X66040Y13970
X86360Y13970
X86360Y40005
T3
X37084Y70993
X16256Y94107
X37084Y94107
X16256Y70993
T4
X87630Y69850
X87630Y85090
X46990Y85090
X46990Y69850
T5
X66040Y55880
X60960Y55880
X63500Y55880
X68580Y55880
X71120Y62230
X68580Y62230
X66040Y62230
X63500Y62230
X60960Y62230
T6
X80010Y85090
X82550Y85090
X85090Y85090
X71120Y43180
X22860Y95250
X25400Y95250
X27940Y95250
X30480Y95250
X81280Y43180
X78740Y43180
X76200Y43180
X73660Y43180
X74930Y69850
X49530Y69850
X52070Y69850
X54610Y69850
X57150Y69850
X59690Y69850
X62230Y69850
X64770Y69850
X67310Y69850
X69850Y69850
X72390Y69850
X72390Y85090
X77470Y69850
X49530Y85090
X52070Y85090
X54610Y85090
X57150Y85090
X59690Y85090
X62230Y85090
X67310Y85090
X69850Y85090
X74930Y85090
X77470Y85090
X64770Y85090
X80010Y69850
X82550Y69850
X85090Y69850
T7
X71120Y91440
X58420Y91440
X55880Y91440
X53340Y91440
X8890Y88900
X8890Y96520
X8890Y67310
X8890Y74930
X8890Y77470
X2540Y86360
X5080Y86360
X5080Y78740
X2540Y78740
X5080Y71120
X2540Y71120
X76200Y91440
X73660Y91440
X60960Y91440
X68580Y91440
X66040Y91440
X63500Y91440
X8890Y85090
T8
X65485Y72945
X58420Y67310
X60175Y73729
X53340Y76200
X50800Y73729
X59690Y64770
X62230Y64770
X73660Y57150
X25400Y64770
X24130Y76200
X52070Y87630
X33020Y90170
M30