G04 EAGLE Gerber X2 export*
%TF.Part,Single*%
%TF.FileFunction,Profile,NP*%
%TF.FilePolarity,Positive*%
%TF.GenerationSoftware,Autodesk,EAGLE,8.6.3*%
%TF.CreationDate,2019-03-08T18:13:08Z*%
G75*
%MOMM*%
%FSLAX34Y34*%
%LPD*%
%AMOC8*
5,1,8,0,0,1.08239X$1,22.5*%
G01*
%ADD10C,0.254000*%


D10*
X0Y596900D02*
X127000Y533400D01*
X127000Y38100D01*
X127723Y34250D01*
X128778Y30478D01*
X130158Y26812D01*
X131853Y23280D01*
X133848Y19910D01*
X136130Y16726D01*
X138681Y13753D01*
X141481Y11014D01*
X144509Y8529D01*
X147742Y6318D01*
X151156Y4396D01*
X154724Y2780D01*
X158420Y1481D01*
X162214Y509D01*
X166079Y-129D01*
X169985Y-427D01*
X173902Y-384D01*
X177800Y0D01*
X949200Y0D01*
X952808Y158D01*
X956389Y629D01*
X959915Y1411D01*
X963360Y2497D01*
X966696Y3879D01*
X969900Y5547D01*
X972946Y7487D01*
X975811Y9686D01*
X978474Y12126D01*
X980914Y14789D01*
X983113Y17654D01*
X985053Y20700D01*
X986721Y23904D01*
X988103Y27240D01*
X989189Y30685D01*
X989971Y34211D01*
X990442Y37792D01*
X990600Y41400D01*
X990600Y228600D01*
X901700Y279400D01*
X901700Y685800D01*
X990600Y762000D01*
X987300Y952400D01*
X987732Y955200D01*
X987919Y958027D01*
X987858Y960860D01*
X987551Y963676D01*
X987000Y966455D01*
X986208Y969176D01*
X985182Y971817D01*
X983930Y974358D01*
X982461Y976781D01*
X980787Y979067D01*
X978920Y981198D01*
X976874Y983158D01*
X974665Y984932D01*
X972310Y986507D01*
X969827Y987871D01*
X967234Y989013D01*
X964552Y989925D01*
X961800Y990600D01*
X825500Y990600D01*
X787400Y939800D01*
X508000Y939800D01*
X469900Y990600D01*
X38100Y990500D01*
X34779Y990355D01*
X31484Y989921D01*
X28239Y989202D01*
X25069Y988202D01*
X21998Y986930D01*
X19050Y985396D01*
X16247Y983610D01*
X13610Y981586D01*
X11159Y979341D01*
X8914Y976890D01*
X6890Y974253D01*
X5104Y971450D01*
X3570Y968502D01*
X2298Y965431D01*
X1298Y962261D01*
X579Y959016D01*
X145Y955721D01*
X0Y952400D01*
X0Y596900D01*
X868045Y698906D02*
X868125Y699713D01*
X868283Y700508D01*
X868518Y701284D01*
X868829Y702034D01*
X869211Y702749D01*
X869662Y703423D01*
X870176Y704050D01*
X870750Y704624D01*
X871377Y705138D01*
X872051Y705589D01*
X872766Y705971D01*
X873516Y706282D01*
X874292Y706517D01*
X875087Y706676D01*
X875894Y706755D01*
X876706Y706755D01*
X877513Y706676D01*
X878308Y706517D01*
X879084Y706282D01*
X879834Y705971D01*
X880549Y705589D01*
X881223Y705138D01*
X881850Y704624D01*
X882424Y704050D01*
X882938Y703423D01*
X883389Y702749D01*
X883771Y702034D01*
X884082Y701284D01*
X884317Y700508D01*
X884476Y699713D01*
X884555Y698906D01*
X884555Y698094D01*
X884476Y697287D01*
X884317Y696492D01*
X884082Y695716D01*
X883771Y694966D01*
X883389Y694251D01*
X882938Y693577D01*
X882424Y692950D01*
X881850Y692376D01*
X881223Y691862D01*
X880549Y691411D01*
X879834Y691029D01*
X879084Y690718D01*
X878308Y690483D01*
X877513Y690325D01*
X876706Y690245D01*
X875894Y690245D01*
X875087Y690325D01*
X874292Y690483D01*
X873516Y690718D01*
X872766Y691029D01*
X872051Y691411D01*
X871377Y691862D01*
X870750Y692376D01*
X870176Y692950D01*
X869662Y693577D01*
X869211Y694251D01*
X868829Y694966D01*
X868518Y695716D01*
X868283Y696492D01*
X868125Y697287D01*
X868045Y698094D01*
X868045Y698906D01*
X868045Y851306D02*
X868125Y852113D01*
X868283Y852908D01*
X868518Y853684D01*
X868829Y854434D01*
X869211Y855149D01*
X869662Y855823D01*
X870176Y856450D01*
X870750Y857024D01*
X871377Y857538D01*
X872051Y857989D01*
X872766Y858371D01*
X873516Y858682D01*
X874292Y858917D01*
X875087Y859076D01*
X875894Y859155D01*
X876706Y859155D01*
X877513Y859076D01*
X878308Y858917D01*
X879084Y858682D01*
X879834Y858371D01*
X880549Y857989D01*
X881223Y857538D01*
X881850Y857024D01*
X882424Y856450D01*
X882938Y855823D01*
X883389Y855149D01*
X883771Y854434D01*
X884082Y853684D01*
X884317Y852908D01*
X884476Y852113D01*
X884555Y851306D01*
X884555Y850494D01*
X884476Y849687D01*
X884317Y848892D01*
X884082Y848116D01*
X883771Y847366D01*
X883389Y846651D01*
X882938Y845977D01*
X882424Y845350D01*
X881850Y844776D01*
X881223Y844262D01*
X880549Y843811D01*
X879834Y843429D01*
X879084Y843118D01*
X878308Y842883D01*
X877513Y842725D01*
X876706Y842645D01*
X875894Y842645D01*
X875087Y842725D01*
X874292Y842883D01*
X873516Y843118D01*
X872766Y843429D01*
X872051Y843811D01*
X871377Y844262D01*
X870750Y844776D01*
X870176Y845350D01*
X869662Y845977D01*
X869211Y846651D01*
X868829Y847366D01*
X868518Y848116D01*
X868283Y848892D01*
X868125Y849687D01*
X868045Y850494D01*
X868045Y851306D01*
X461645Y851306D02*
X461725Y852113D01*
X461883Y852908D01*
X462118Y853684D01*
X462429Y854434D01*
X462811Y855149D01*
X463262Y855823D01*
X463776Y856450D01*
X464350Y857024D01*
X464977Y857538D01*
X465651Y857989D01*
X466366Y858371D01*
X467116Y858682D01*
X467892Y858917D01*
X468687Y859076D01*
X469494Y859155D01*
X470306Y859155D01*
X471113Y859076D01*
X471908Y858917D01*
X472684Y858682D01*
X473434Y858371D01*
X474149Y857989D01*
X474823Y857538D01*
X475450Y857024D01*
X476024Y856450D01*
X476538Y855823D01*
X476989Y855149D01*
X477371Y854434D01*
X477682Y853684D01*
X477917Y852908D01*
X478076Y852113D01*
X478155Y851306D01*
X478155Y850494D01*
X478076Y849687D01*
X477917Y848892D01*
X477682Y848116D01*
X477371Y847366D01*
X476989Y846651D01*
X476538Y845977D01*
X476024Y845350D01*
X475450Y844776D01*
X474823Y844262D01*
X474149Y843811D01*
X473434Y843429D01*
X472684Y843118D01*
X471908Y842883D01*
X471113Y842725D01*
X470306Y842645D01*
X469494Y842645D01*
X468687Y842725D01*
X467892Y842883D01*
X467116Y843118D01*
X466366Y843429D01*
X465651Y843811D01*
X464977Y844262D01*
X464350Y844776D01*
X463776Y845350D01*
X463262Y845977D01*
X462811Y846651D01*
X462429Y847366D01*
X462118Y848116D01*
X461883Y848892D01*
X461725Y849687D01*
X461645Y850494D01*
X461645Y851306D01*
X461645Y698906D02*
X461725Y699713D01*
X461883Y700508D01*
X462118Y701284D01*
X462429Y702034D01*
X462811Y702749D01*
X463262Y703423D01*
X463776Y704050D01*
X464350Y704624D01*
X464977Y705138D01*
X465651Y705589D01*
X466366Y705971D01*
X467116Y706282D01*
X467892Y706517D01*
X468687Y706676D01*
X469494Y706755D01*
X470306Y706755D01*
X471113Y706676D01*
X471908Y706517D01*
X472684Y706282D01*
X473434Y705971D01*
X474149Y705589D01*
X474823Y705138D01*
X475450Y704624D01*
X476024Y704050D01*
X476538Y703423D01*
X476989Y702749D01*
X477371Y702034D01*
X477682Y701284D01*
X477917Y700508D01*
X478076Y699713D01*
X478155Y698906D01*
X478155Y698094D01*
X478076Y697287D01*
X477917Y696492D01*
X477682Y695716D01*
X477371Y694966D01*
X476989Y694251D01*
X476538Y693577D01*
X476024Y692950D01*
X475450Y692376D01*
X474823Y691862D01*
X474149Y691411D01*
X473434Y691029D01*
X472684Y690718D01*
X471908Y690483D01*
X471113Y690325D01*
X470306Y690245D01*
X469494Y690245D01*
X468687Y690325D01*
X467892Y690483D01*
X467116Y690718D01*
X466366Y691029D01*
X465651Y691411D01*
X464977Y691862D01*
X464350Y692376D01*
X463776Y692950D01*
X463262Y693577D01*
X462811Y694251D01*
X462429Y694966D01*
X462118Y695716D01*
X461883Y696492D01*
X461725Y697287D01*
X461645Y698094D01*
X461645Y698906D01*
X172560Y940633D02*
X172484Y939764D01*
X172332Y938904D01*
X172106Y938060D01*
X171808Y937240D01*
X171439Y936448D01*
X171002Y935692D01*
X170501Y934977D01*
X169940Y934308D01*
X169322Y933690D01*
X168653Y933129D01*
X167938Y932628D01*
X167182Y932191D01*
X166390Y931822D01*
X165570Y931524D01*
X164726Y931298D01*
X163867Y931146D01*
X162997Y931070D01*
X162123Y931070D01*
X161254Y931146D01*
X160394Y931298D01*
X159550Y931524D01*
X158730Y931822D01*
X157938Y932191D01*
X157182Y932628D01*
X156467Y933129D01*
X155798Y933690D01*
X155180Y934308D01*
X154619Y934977D01*
X154118Y935692D01*
X153681Y936448D01*
X153312Y937240D01*
X153014Y938060D01*
X152788Y938904D01*
X152636Y939764D01*
X152560Y940633D01*
X152560Y941507D01*
X152636Y942377D01*
X152788Y943236D01*
X153014Y944080D01*
X153312Y944900D01*
X153681Y945692D01*
X154118Y946448D01*
X154619Y947163D01*
X155180Y947832D01*
X155798Y948450D01*
X156467Y949011D01*
X157182Y949512D01*
X157938Y949949D01*
X158730Y950318D01*
X159550Y950616D01*
X160394Y950842D01*
X161254Y950994D01*
X162123Y951070D01*
X162997Y951070D01*
X163867Y950994D01*
X164726Y950842D01*
X165570Y950616D01*
X166390Y950318D01*
X167182Y949949D01*
X167938Y949512D01*
X168653Y949011D01*
X169322Y948450D01*
X169940Y947832D01*
X170501Y947163D01*
X171002Y946448D01*
X171439Y945692D01*
X171808Y944900D01*
X172106Y944080D01*
X172332Y943236D01*
X172484Y942377D01*
X172560Y941507D01*
X172560Y940633D01*
X380840Y940633D02*
X380764Y939764D01*
X380612Y938904D01*
X380386Y938060D01*
X380088Y937240D01*
X379719Y936448D01*
X379282Y935692D01*
X378781Y934977D01*
X378220Y934308D01*
X377602Y933690D01*
X376933Y933129D01*
X376218Y932628D01*
X375462Y932191D01*
X374670Y931822D01*
X373850Y931524D01*
X373006Y931298D01*
X372147Y931146D01*
X371277Y931070D01*
X370403Y931070D01*
X369534Y931146D01*
X368674Y931298D01*
X367830Y931524D01*
X367010Y931822D01*
X366218Y932191D01*
X365462Y932628D01*
X364747Y933129D01*
X364078Y933690D01*
X363460Y934308D01*
X362899Y934977D01*
X362398Y935692D01*
X361961Y936448D01*
X361592Y937240D01*
X361294Y938060D01*
X361068Y938904D01*
X360916Y939764D01*
X360840Y940633D01*
X360840Y941507D01*
X360916Y942377D01*
X361068Y943236D01*
X361294Y944080D01*
X361592Y944900D01*
X361961Y945692D01*
X362398Y946448D01*
X362899Y947163D01*
X363460Y947832D01*
X364078Y948450D01*
X364747Y949011D01*
X365462Y949512D01*
X366218Y949949D01*
X367010Y950318D01*
X367830Y950616D01*
X368674Y950842D01*
X369534Y950994D01*
X370403Y951070D01*
X371277Y951070D01*
X372147Y950994D01*
X373006Y950842D01*
X373850Y950616D01*
X374670Y950318D01*
X375462Y949949D01*
X376218Y949512D01*
X376933Y949011D01*
X377602Y948450D01*
X378220Y947832D01*
X378781Y947163D01*
X379282Y946448D01*
X379719Y945692D01*
X380088Y944900D01*
X380386Y944080D01*
X380612Y943236D01*
X380764Y942377D01*
X380840Y941507D01*
X380840Y940633D01*
X380840Y709493D02*
X380764Y708624D01*
X380612Y707764D01*
X380386Y706920D01*
X380088Y706100D01*
X379719Y705308D01*
X379282Y704552D01*
X378781Y703837D01*
X378220Y703168D01*
X377602Y702550D01*
X376933Y701989D01*
X376218Y701488D01*
X375462Y701051D01*
X374670Y700682D01*
X373850Y700384D01*
X373006Y700158D01*
X372147Y700006D01*
X371277Y699930D01*
X370403Y699930D01*
X369534Y700006D01*
X368674Y700158D01*
X367830Y700384D01*
X367010Y700682D01*
X366218Y701051D01*
X365462Y701488D01*
X364747Y701989D01*
X364078Y702550D01*
X363460Y703168D01*
X362899Y703837D01*
X362398Y704552D01*
X361961Y705308D01*
X361592Y706100D01*
X361294Y706920D01*
X361068Y707764D01*
X360916Y708624D01*
X360840Y709493D01*
X360840Y710367D01*
X360916Y711237D01*
X361068Y712096D01*
X361294Y712940D01*
X361592Y713760D01*
X361961Y714552D01*
X362398Y715308D01*
X362899Y716023D01*
X363460Y716692D01*
X364078Y717310D01*
X364747Y717871D01*
X365462Y718372D01*
X366218Y718809D01*
X367010Y719178D01*
X367830Y719476D01*
X368674Y719702D01*
X369534Y719854D01*
X370403Y719930D01*
X371277Y719930D01*
X372147Y719854D01*
X373006Y719702D01*
X373850Y719476D01*
X374670Y719178D01*
X375462Y718809D01*
X376218Y718372D01*
X376933Y717871D01*
X377602Y717310D01*
X378220Y716692D01*
X378781Y716023D01*
X379282Y715308D01*
X379719Y714552D01*
X380088Y713760D01*
X380386Y712940D01*
X380612Y712096D01*
X380764Y711237D01*
X380840Y710367D01*
X380840Y709493D01*
X172560Y709493D02*
X172484Y708624D01*
X172332Y707764D01*
X172106Y706920D01*
X171808Y706100D01*
X171439Y705308D01*
X171002Y704552D01*
X170501Y703837D01*
X169940Y703168D01*
X169322Y702550D01*
X168653Y701989D01*
X167938Y701488D01*
X167182Y701051D01*
X166390Y700682D01*
X165570Y700384D01*
X164726Y700158D01*
X163867Y700006D01*
X162997Y699930D01*
X162123Y699930D01*
X161254Y700006D01*
X160394Y700158D01*
X159550Y700384D01*
X158730Y700682D01*
X157938Y701051D01*
X157182Y701488D01*
X156467Y701989D01*
X155798Y702550D01*
X155180Y703168D01*
X154619Y703837D01*
X154118Y704552D01*
X153681Y705308D01*
X153312Y706100D01*
X153014Y706920D01*
X152788Y707764D01*
X152636Y708624D01*
X152560Y709493D01*
X152560Y710367D01*
X152636Y711237D01*
X152788Y712096D01*
X153014Y712940D01*
X153312Y713760D01*
X153681Y714552D01*
X154118Y715308D01*
X154619Y716023D01*
X155180Y716692D01*
X155798Y717310D01*
X156467Y717871D01*
X157182Y718372D01*
X157938Y718809D01*
X158730Y719178D01*
X159550Y719476D01*
X160394Y719702D01*
X161254Y719854D01*
X162123Y719930D01*
X162997Y719930D01*
X163867Y719854D01*
X164726Y719702D01*
X165570Y719476D01*
X166390Y719178D01*
X167182Y718809D01*
X167938Y718372D01*
X168653Y717871D01*
X169322Y717310D01*
X169940Y716692D01*
X170501Y716023D01*
X171002Y715308D01*
X171439Y714552D01*
X171808Y713760D01*
X172106Y712940D01*
X172332Y712096D01*
X172484Y711237D01*
X172560Y710367D01*
X172560Y709493D01*
X863064Y385050D02*
X861996Y385126D01*
X860935Y385279D01*
X859888Y385507D01*
X858860Y385809D01*
X857856Y386183D01*
X856881Y386628D01*
X855941Y387142D01*
X855040Y387721D01*
X854182Y388363D01*
X853372Y389065D01*
X852615Y389822D01*
X851913Y390632D01*
X851271Y391490D01*
X850692Y392391D01*
X850178Y393331D01*
X849733Y394306D01*
X849359Y395310D01*
X849057Y396338D01*
X848829Y397385D01*
X848676Y398446D01*
X848600Y399514D01*
X848600Y400586D01*
X848676Y401654D01*
X848829Y402715D01*
X849057Y403762D01*
X849359Y404790D01*
X849733Y405794D01*
X850178Y406769D01*
X850692Y407709D01*
X851271Y408610D01*
X851913Y409468D01*
X852615Y410278D01*
X853372Y411035D01*
X854182Y411737D01*
X855040Y412379D01*
X855941Y412958D01*
X856881Y413472D01*
X857856Y413917D01*
X858860Y414291D01*
X859888Y414593D01*
X860935Y414821D01*
X861996Y414974D01*
X863064Y415050D01*
X864136Y415050D01*
X865204Y414974D01*
X866265Y414821D01*
X867312Y414593D01*
X868340Y414291D01*
X869344Y413917D01*
X870319Y413472D01*
X871259Y412958D01*
X872160Y412379D01*
X873018Y411737D01*
X873828Y411035D01*
X874585Y410278D01*
X875287Y409468D01*
X875929Y408610D01*
X876508Y407709D01*
X877022Y406769D01*
X877467Y405794D01*
X877841Y404790D01*
X878143Y403762D01*
X878371Y402715D01*
X878524Y401654D01*
X878600Y400586D01*
X878600Y399514D01*
X878524Y398446D01*
X878371Y397385D01*
X878143Y396338D01*
X877841Y395310D01*
X877467Y394306D01*
X877022Y393331D01*
X876508Y392391D01*
X875929Y391490D01*
X875287Y390632D01*
X874585Y389822D01*
X873828Y389065D01*
X873018Y388363D01*
X872160Y387721D01*
X871259Y387142D01*
X870319Y386628D01*
X869344Y386183D01*
X868340Y385809D01*
X867312Y385507D01*
X866265Y385279D01*
X865204Y385126D01*
X864136Y385050D01*
X863064Y385050D01*
X659864Y385050D02*
X658796Y385126D01*
X657735Y385279D01*
X656688Y385507D01*
X655660Y385809D01*
X654656Y386183D01*
X653681Y386628D01*
X652741Y387142D01*
X651840Y387721D01*
X650982Y388363D01*
X650172Y389065D01*
X649415Y389822D01*
X648713Y390632D01*
X648071Y391490D01*
X647492Y392391D01*
X646978Y393331D01*
X646533Y394306D01*
X646159Y395310D01*
X645857Y396338D01*
X645629Y397385D01*
X645476Y398446D01*
X645400Y399514D01*
X645400Y400586D01*
X645476Y401654D01*
X645629Y402715D01*
X645857Y403762D01*
X646159Y404790D01*
X646533Y405794D01*
X646978Y406769D01*
X647492Y407709D01*
X648071Y408610D01*
X648713Y409468D01*
X649415Y410278D01*
X650172Y411035D01*
X650982Y411737D01*
X651840Y412379D01*
X652741Y412958D01*
X653681Y413472D01*
X654656Y413917D01*
X655660Y414291D01*
X656688Y414593D01*
X657735Y414821D01*
X658796Y414974D01*
X659864Y415050D01*
X660936Y415050D01*
X662004Y414974D01*
X663065Y414821D01*
X664112Y414593D01*
X665140Y414291D01*
X666144Y413917D01*
X667119Y413472D01*
X668059Y412958D01*
X668960Y412379D01*
X669818Y411737D01*
X670628Y411035D01*
X671385Y410278D01*
X672087Y409468D01*
X672729Y408610D01*
X673308Y407709D01*
X673822Y406769D01*
X674267Y405794D01*
X674641Y404790D01*
X674943Y403762D01*
X675171Y402715D01*
X675324Y401654D01*
X675400Y400586D01*
X675400Y399514D01*
X675324Y398446D01*
X675171Y397385D01*
X674943Y396338D01*
X674641Y395310D01*
X674267Y394306D01*
X673822Y393331D01*
X673308Y392391D01*
X672729Y391490D01*
X672087Y390632D01*
X671385Y389822D01*
X670628Y389065D01*
X669818Y388363D01*
X668960Y387721D01*
X668059Y387142D01*
X667119Y386628D01*
X666144Y386183D01*
X665140Y385809D01*
X664112Y385507D01*
X663065Y385279D01*
X662004Y385126D01*
X660936Y385050D01*
X659864Y385050D01*
X659864Y124700D02*
X658796Y124776D01*
X657735Y124929D01*
X656688Y125157D01*
X655660Y125459D01*
X654656Y125833D01*
X653681Y126278D01*
X652741Y126792D01*
X651840Y127371D01*
X650982Y128013D01*
X650172Y128715D01*
X649415Y129472D01*
X648713Y130282D01*
X648071Y131140D01*
X647492Y132041D01*
X646978Y132981D01*
X646533Y133956D01*
X646159Y134960D01*
X645857Y135988D01*
X645629Y137035D01*
X645476Y138096D01*
X645400Y139164D01*
X645400Y140236D01*
X645476Y141304D01*
X645629Y142365D01*
X645857Y143412D01*
X646159Y144440D01*
X646533Y145444D01*
X646978Y146419D01*
X647492Y147359D01*
X648071Y148260D01*
X648713Y149118D01*
X649415Y149928D01*
X650172Y150685D01*
X650982Y151387D01*
X651840Y152029D01*
X652741Y152608D01*
X653681Y153122D01*
X654656Y153567D01*
X655660Y153941D01*
X656688Y154243D01*
X657735Y154471D01*
X658796Y154624D01*
X659864Y154700D01*
X660936Y154700D01*
X662004Y154624D01*
X663065Y154471D01*
X664112Y154243D01*
X665140Y153941D01*
X666144Y153567D01*
X667119Y153122D01*
X668059Y152608D01*
X668960Y152029D01*
X669818Y151387D01*
X670628Y150685D01*
X671385Y149928D01*
X672087Y149118D01*
X672729Y148260D01*
X673308Y147359D01*
X673822Y146419D01*
X674267Y145444D01*
X674641Y144440D01*
X674943Y143412D01*
X675171Y142365D01*
X675324Y141304D01*
X675400Y140236D01*
X675400Y139164D01*
X675324Y138096D01*
X675171Y137035D01*
X674943Y135988D01*
X674641Y134960D01*
X674267Y133956D01*
X673822Y132981D01*
X673308Y132041D01*
X672729Y131140D01*
X672087Y130282D01*
X671385Y129472D01*
X670628Y128715D01*
X669818Y128013D01*
X668960Y127371D01*
X668059Y126792D01*
X667119Y126278D01*
X666144Y125833D01*
X665140Y125459D01*
X664112Y125157D01*
X663065Y124929D01*
X662004Y124776D01*
X660936Y124700D01*
X659864Y124700D01*
X863064Y124700D02*
X861996Y124776D01*
X860935Y124929D01*
X859888Y125157D01*
X858860Y125459D01*
X857856Y125833D01*
X856881Y126278D01*
X855941Y126792D01*
X855040Y127371D01*
X854182Y128013D01*
X853372Y128715D01*
X852615Y129472D01*
X851913Y130282D01*
X851271Y131140D01*
X850692Y132041D01*
X850178Y132981D01*
X849733Y133956D01*
X849359Y134960D01*
X849057Y135988D01*
X848829Y137035D01*
X848676Y138096D01*
X848600Y139164D01*
X848600Y140236D01*
X848676Y141304D01*
X848829Y142365D01*
X849057Y143412D01*
X849359Y144440D01*
X849733Y145444D01*
X850178Y146419D01*
X850692Y147359D01*
X851271Y148260D01*
X851913Y149118D01*
X852615Y149928D01*
X853372Y150685D01*
X854182Y151387D01*
X855040Y152029D01*
X855941Y152608D01*
X856881Y153122D01*
X857856Y153567D01*
X858860Y153941D01*
X859888Y154243D01*
X860935Y154471D01*
X861996Y154624D01*
X863064Y154700D01*
X864136Y154700D01*
X865204Y154624D01*
X866265Y154471D01*
X867312Y154243D01*
X868340Y153941D01*
X869344Y153567D01*
X870319Y153122D01*
X871259Y152608D01*
X872160Y152029D01*
X873018Y151387D01*
X873828Y150685D01*
X874585Y149928D01*
X875287Y149118D01*
X875929Y148260D01*
X876508Y147359D01*
X877022Y146419D01*
X877467Y145444D01*
X877841Y144440D01*
X878143Y143412D01*
X878371Y142365D01*
X878524Y141304D01*
X878600Y140236D01*
X878600Y139164D01*
X878524Y138096D01*
X878371Y137035D01*
X878143Y135988D01*
X877841Y134960D01*
X877467Y133956D01*
X877022Y132981D01*
X876508Y132041D01*
X875929Y131140D01*
X875287Y130282D01*
X874585Y129472D01*
X873828Y128715D01*
X873018Y128013D01*
X872160Y127371D01*
X871259Y126792D01*
X870319Y126278D01*
X869344Y125833D01*
X868340Y125459D01*
X867312Y125157D01*
X866265Y124929D01*
X865204Y124776D01*
X864136Y124700D01*
X863064Y124700D01*
M02*
